<?xml version="1.0" encoding="UTF-8"?>
<svg version="1.1" viewBox="0 0 310 95" xmlns="http://www.w3.org/2000/svg"><g transform="matrix(1.8113 0 0 1.8113 -181.56 5.5256)" stroke-width=".62362"><path d="m242.26 6.0408c4.0901-3.4923 9.7534-7.2364 11.83-7.3308 2.0765-0.094388 4.3104 0.88095 6.1037 2.0765 1.7934 1.1956 3.4294 2.7687 3.9643 4.3104 0.53487 1.5417 0.72364 11.578 0.72364 11.578s-2.2338-0.09439-2.2024-0.2517c0.0315-0.15731-1.1327-4.3733-1.7619-5.443-0.62925-1.0697-0.56632-0.34609-0.56632-0.34609s0.0315 2.7372-0.81803 4.4048c-0.84948 1.6675-17.273-8.9983-17.273-8.9983z" fill="#a40d0d"/><path d="m240.88 6.4813c2.0136-1.8248 3.1777-1.1012 5.0025-0.5034 2.7798 0.91063 11.909 6.2925 13.482 8.1803 1.7129 2.0555 1.1484 3.7755 0.26743 5.6003s-1.636 3.6497-4.0901 3.5867c-2.4541-0.06292-7.7452-1.7203-11.86-4.549-3.6625-2.5179-6.0109-4.7009-5.8851-6.5887 0.12585-1.8878 3.0833-5.7262 3.0833-5.7262z" fill="#dadade"/><path d="m263.53 15.857c2.6114 0 3.8699 1.29 3.9643 3.0519s-1.1012 3.398-3.3665 3.5867c-2.2653 0.18878-3.9014-1.4473-3.8699-3.2721s1.29-3.3036 3.2721-3.3665z" fill="#dadade"/><path d="m239.05 13.372c0.72364-0.69218 4.7537-0.08139 10.728 3.7063 5.1317 3.2533 6.4984 4.9466 6.2152 5.45-0.28316 0.5034-3.5156 0.73227-10.827-3.5575-4.5462-2.6675-6.4943-5.0324-6.1168-5.5987z" fill="#b0b0b0"/><path d="m244.59 5.4023c-0.7551-0.062925-1.5121 0.22945-2.5504 2.2745-1.0383 2.0451-2.0136 4.3418-0.94387 4.6879 1.0697 0.34609 5.8877 2.0908 8.84 3.8569 4.7283 2.8285 6.9228 5.5734 7.2227 5.8632 0.28357 0.27391 0.76242 0.73667 1.6119-0.67914 0.84949-1.4158 2.0217-3.9618 1.7063-5.5485-0.28986-1.4583-1.7512-3.7355-6.7015-6.5127-4.9203-2.7604-7.8726-3.7752-9.1852-3.942z" fill="#fff"/><path d="m265.1 16.109c-2.3597-0.28316-3.6182 1.0697-3.6811 2.5485-0.0629 1.4787 0.62925 3.0833 2.517 3.2406 1.8878 0.15731 3.3665-0.7551 3.4609-2.2653s-0.72363-3.398-2.2968-3.5238z" fill="#fff"/><path d="m260.42 10.257c-0.0315-2.6114-2.0451-5.5059-3.807-6.7015s-2.6114-1.9192-2.2338-2.2653c0.37755-0.34609 6.5757 1.7619 7.3308 3.6811s0.12585 8.432 0.12585 8.432-0.56633-2.0136-0.88095-2.3597c-0.31463-0.34609-0.53487-0.78656-0.53487-0.78656z" fill="#7c0a0a"/><path d="m244.97 3.853c3.2406-0.37755 7.8001 1.3697 8.1777 0.96072 0.37755-0.40901-1.8328-3.963-3.0913-3.9945-1.2585-0.031463-5.0864 3.0338-5.0864 3.0338z" fill="#7c0a0a"/></g><defs><linearGradient id="a" x1="65.429" x2="65.429" y1="172.52" y2="191.13" gradientTransform="matrix(2.0694 0 0 2.0694 1.4573 -343.17)" gradientUnits="userSpaceOnUse"><stop stop-color="#828486" offset="0"/><stop stop-color="#5A5B5D" offset=".3791"/><stop stop-color="#D1D3D4" offset="1"/></linearGradient><linearGradient id="m" x1="133.36" x2="109.59" y1="177.13" y2="211.5" gradientTransform="matrix(2.0694 0 0 2.0694 1.4573 -343.17)" gradientUnits="userSpaceOnUse"><stop stop-color="#39B54A" offset=".478"/><stop stop-color="#1B75BC" offset="1"/></linearGradient><linearGradient id="h" x1="86.048" x2="62.274" y1="177.13" y2="211.5" gradientUnits="userSpaceOnUse"><stop stop-color="#381F1F" offset="0"/><stop stop-color="#3A1F20" offset=".0017"/><stop stop-color="#5B2926" offset=".0376"/><stop stop-color="#7C2F28" offset=".0757"/><stop stop-color="#9B3029" offset=".1173"/><stop stop-color="#B62E28" offset=".1626"/><stop stop-color="#CC2927" offset=".2129"/><stop stop-color="#DC2325" offset=".271"/><stop stop-color="#E81F25" offset=".3438"/><stop stop-color="#ED1C24" offset=".478"/><stop stop-color="#F7931E" offset="1"/></linearGradient><linearGradient id="g" x1="109.71" x2="85.934" y1="177.13" y2="211.5" gradientUnits="userSpaceOnUse"><stop stop-color="#130E1E" offset="0"/><stop stop-color="#1C1426" offset=".0231"/><stop stop-color="#442349" offset=".1446"/><stop stop-color="#652966" offset=".2552"/><stop stop-color="#7C287A" offset=".3511"/><stop stop-color="#8B2688" offset=".4286"/><stop stop-color="#91278F" offset=".478"/><stop stop-color="#ED1C24" offset="1"/></linearGradient><linearGradient id="w" x1="53.368" x2="53.368" y1="212.22" y2="176.29" gradientUnits="userSpaceOnUse"><stop stop-color="#fff" offset="0"/><stop offset="1"/></linearGradient><linearGradient id="v" x1="40.463" x2="40.463" y1="212.22" y2="176.29" gradientUnits="userSpaceOnUse"><stop stop-color="#fff" offset="0"/><stop offset="1"/></linearGradient><linearGradient id="u" x1="44.689" x2="44.689" y1="211.46" y2="177.64" gradientUnits="userSpaceOnUse"><stop stop-color="#fff" offset="0"/><stop offset="1"/></linearGradient><linearGradient id="t" x1=".1509" x2=".1509" y1="211.46" y2="177.64" gradientUnits="userSpaceOnUse"><stop stop-color="#fff" offset="0"/><stop offset="1"/></linearGradient><linearGradient id="s" x1="79.318" x2="79.318" y1="211.64" y2="175.94" gradientUnits="userSpaceOnUse"><stop stop-color="#fff" offset="0"/><stop offset="1"/></linearGradient><linearGradient id="r" x1="68.873" x2="68.873" y1="211.99" y2="177.23" gradientUnits="userSpaceOnUse"><stop stop-color="#fff" offset="0"/><stop offset="1"/></linearGradient><linearGradient id="q" x1="102.97" x2="102.97" y1="211.62" y2="175.93" gradientUnits="userSpaceOnUse"><stop stop-color="#fff" offset="0"/><stop offset="1"/></linearGradient><linearGradient id="p" x1="92.521" x2="92.521" y1="211.97" y2="177.22" gradientUnits="userSpaceOnUse"><stop stop-color="#fff" offset="0"/><stop offset="1"/></linearGradient><linearGradient id="o" x1="126.63" x2="126.63" y1="211.62" y2="175.93" gradientUnits="userSpaceOnUse"><stop stop-color="#fff" offset="0"/><stop offset="1"/></linearGradient><linearGradient id="n" x1="116.18" x2="116.18" y1="211.97" y2="177.22" gradientUnits="userSpaceOnUse"><stop stop-color="#fff" offset="0"/><stop offset="1"/></linearGradient><linearGradient id="l" x1="31.853" x2="31.853" y1="211.64" y2="176.64" gradientUnits="userSpaceOnUse"><stop stop-color="#fff" offset="0"/><stop offset="1"/></linearGradient><linearGradient id="k" x1="8.6626" x2="8.6626" y1="211.64" y2="177.53" gradientUnits="userSpaceOnUse"><stop stop-color="#fff" offset="0"/><stop offset="1"/></linearGradient><linearGradient id="j" x1="20.31" x2="20.31" y1="211.64" y2="177.24" gradientTransform="matrix(2.0694 0 0 2.0694 1.4573 -343.17)" gradientUnits="userSpaceOnUse"><stop stop-color="#fff" offset="0"/><stop offset="1"/></linearGradient><linearGradient id="i" x1="20.25" x2="20.25" y1="211.92" y2="177.14" gradientUnits="userSpaceOnUse"><stop stop-color="#fff" offset="0"/><stop offset="1"/></linearGradient><linearGradient id="b" x1="20.309" x2="20.309" y1="177.29" y2="213.48" gradientUnits="userSpaceOnUse"><stop stop-color="#1F1F20" offset=".478"/><stop stop-color="#58595B" offset=".8626"/><stop stop-color="#A5A8AA" offset="1"/></linearGradient><linearGradient id="c" x1="49.035" x2="49.035" y1="177.29" y2="213.48" gradientTransform="matrix(2.3114,0,0,2.3114,14,-381.18)" gradientUnits="userSpaceOnUse"><stop stop-color="#1F1F20" offset=".478"/><stop stop-color="#58595B" offset=".8626"/><stop stop-color="#A5A8AA" offset="1"/></linearGradient><linearGradient id="f" x1="74.096" x2="74.096" y1="177.29" y2="213.48" gradientUnits="userSpaceOnUse"><stop stop-color="#1F1F20" offset=".478"/><stop stop-color="#58595B" offset=".8626"/><stop stop-color="#A5A8AA" offset="1"/></linearGradient><linearGradient id="d" x1="121.41" x2="121.41" y1="177.29" y2="213.48" gradientUnits="userSpaceOnUse"><stop stop-color="#1F1F20" offset=".478"/><stop stop-color="#58595B" offset=".8626"/><stop stop-color="#A5A8AA" offset="1"/></linearGradient><linearGradient id="e" x1="97.754" x2="97.754" y1="177.29" y2="213.48" gradientUnits="userSpaceOnUse"><stop stop-color="#1F1F20" offset=".478"/><stop stop-color="#58595B" offset=".8626"/><stop stop-color="#A5A8AA" offset="1"/></linearGradient></defs><path d="m261.2 31.403c8.4386 3.6275 9.6528 5.0082 15.292 8.7709l-37.432 54.623h-21.605z" fill="url(#m)" stroke-width="2.0694"/><polygon transform="matrix(2.0694 0 0 2.0694 1.4573 -343.17)" points="57.062 211.64 80.68 177.19 91.126 177.19 67.51 211.64" fill="url(#h)"/><polygon transform="matrix(2.0694 0 0 2.0694 1.4573 -343.17)" points="80.722 211.64 104.34 177.19 114.78 177.19 91.167 211.64" fill="url(#g)"/><g transform="matrix(.89531 0 0 .89531 -11.077 -1.8975)"><polygon transform="matrix(2.3114,0,0,2.3114,14,-381.18)" points="80.68 211.64 91.126 211.64 67.51 177.19 57.065 177.19" fill="url(#f)"/><polygon transform="matrix(2.3114,0,0,2.3114,14,-381.18)" points="104.34 211.64 114.79 211.64 91.167 177.19 80.722 177.19" fill="url(#e)"/><polygon transform="matrix(2.3114,0,0,2.3114,14,-381.18)" points="128 211.64 138.44 211.64 114.82 177.19 104.38 177.19" fill="url(#d)"/><rect x="117.02" y="28.381" width="20.65" height="79.617" fill="url(#c)" stroke-width="2.3114"/><polygon transform="matrix(2.3114,0,0,2.3114,14,-381.18)" points="0 177.19 0 211.64 8.76 211.64 8.76 191.46 20.076 208.64 20.307 208.64 31.74 191.29 31.74 211.64 40.618 211.64 40.618 177.19 30.988 177.19 20.307 194.36 9.631 177.19" fill="url(#b)"/></g><path d="m119.55 23.512 22.729 33.153c7.4769 0.11812 14.838 0.34726 22.077 0.67422l-23.19-33.827zm48.957 0 24.475 35.686c7.986 0.68908 15.755 1.5003 23.275 2.4337l-26.135-38.119zm70.57 0h-21.615l29.361 42.806c9.0352 1.6782 17.543 3.547 25.438 5.5771zm-145.39 33.835c6.0697-0.27766 12.245-0.47633 18.488-0.60852v-33.227h-18.488zm-50.207 1.7073-22.093-35.543h-19.931v45.12c5.7924-1.25 11.843-2.4026 18.128-3.4746v-12.108l7.1996 10.931c11.297-1.7591 23.275-3.2366 35.812-4.3976l4.5424-6.8954v6.4898c6.0076-0.51543 12.137-0.95609 18.37-1.3203v-34.345h-19.929z" fill="url(#a)" stroke-width="2.0694"/><path d="m192.83 58.979 0.15112 0.2198c7.986 0.68908 15.755 1.5003 23.275 2.4337l-0.16557-0.24c-7.4997-0.92291-15.268-1.7279-23.261-2.4129zm-191.37 9.654c5.7924-1.25 11.843-2.4026 18.128-3.4746v-0.93548c-6.289 1.0141-12.357 2.1067-18.128 3.2821zm270.64 3.0214c-7.8349-2.0446-16.336-3.932-25.469-5.6206l0.19656 0.28553c9.0352 1.6783 17.543 3.547 25.438 5.5771zm-129.99-15.244 0.17378 0.25506c7.4769 0.11812 14.838 0.3473 22.077 0.67422l-0.16143-0.23144c-7.2306-0.33312-14.602-0.56706-22.089-0.69767zm-48.417 0.9375c6.0697-0.27766 12.245-0.47633 18.488-0.60852v-0.33552c-6.2456 0.10956-12.415 0.28314-18.488 0.53186zm-66.901 6.6346c11.297-1.759 23.275-3.2366 35.812-4.3976l0.40766-0.62259c-12.897 1.1031-25.198 2.5227-36.743 4.2258zm40.354-4.8032c6.0076-0.51543 12.137-0.95602 18.37-1.3203v-0.46147c-6.2373 0.33552-12.369 0.73834-18.37 1.2189z" fill="#fff" stroke-width="2.0694"/><polygon transform="matrix(2.0694 0 0 2.0694 1.4573 -343.17)" points="53.502 211.64 53.502 177.19 53.233 177.19" fill="url(#w)"/><polygon transform="matrix(2.0694 0 0 2.0694 1.4945 -343.17)" points="40.329 177.19 40.598 211.64 40.598 177.19" fill="url(#v)"/><polygon transform="matrix(2.0694 0 0 2.0694 1.4573 -343.17)" points="44.81 211.64 44.568 177.19 44.568 211.64" fill="url(#u)"/><polygon transform="matrix(2.0694 0 0 2.0694 1.3952 -343.17)" points="0.03 177.19 0.03 211.64 0.272 211.64" fill="url(#t)"/><g transform="matrix(2.0694 0 0 2.0694 1.4573 -343.17)"><polygon points="91.126 211.64 67.51 177.19 90.904 211.64" fill="url(#s)"/><polygon points="57.383 177.19 57.065 177.19 80.68 211.64" fill="url(#r)"/><polygon points="114.77 211.62 91.158 177.18 114.55 211.62" fill="url(#q)"/><polygon points="81.031 177.18 80.713 177.18 104.33 211.62" fill="url(#p)"/><polygon points="138.43 211.62 114.82 177.18 138.21 211.62" fill="url(#o)"/><polygon transform="translate(.005 .011)" points="104.37 177.18 127.99 211.62 104.69 177.18" fill="url(#n)"/></g><polygon transform="matrix(2.0694 0 0 2.0694 1.4573 -343.17)" points="31.74 191.29 31.74 211.64 31.965 211.64" fill="url(#l)"/><polygon transform="matrix(2.0694 0 0 2.0694 1.4573 -343.17)" points="8.758 211.64 8.758 191.46 8.566 191.18" fill="url(#k)"/><path d="m43.481 59.055-22.093-35.543h-0.62401l22.719 36.066 22.102-36.066z" fill="url(#j)" stroke-width="2.0694"/><polygon transform="matrix(2.0694 0 0 2.0694 1.4573 -343.17)" points="31.74 191.29 20.203 208.52 8.76 191.46 20.076 208.64 20.307 208.64" fill="url(#i)"/><g transform="translate(1.4573 23.49)" fill="#040404"><polygon transform="matrix(0 -2.0694 -.57886 0 186.63 110.74)" points="53.502 177.19 53.233 177.19 53.502 211.64"/><polygon transform="matrix(0 -2.0694 -.53663 0 205.8 110.74)" points="53.233 177.19 53.502 211.64 53.502 177.19"/><g stroke-width="1.0945"><path d="m118.09 0.022761 0.37901 0.5438 21.243-0.5438z"/><path d="M 20.268,0.56478 0,0.02276 h 19.94 z"/><path d="m167.05 0.022765 0.37901 0.5438 21.243-0.5438z"/><path d="m216 0.022765 0.37901 0.5438 21.243-0.5438z"/></g></g><path d="m3.4063 21.793c-5.4265 1.0947-1.5898 4.3232-0.88379 7.1472 0.22514 0.90056 0.092891 3.6392 0.96064 4.0731 0.87765 0.43882 1.4974-0.88147 1.7676-1.4217 0.45745-0.9149 0.49953-2.0005 0.49953-2.9972 0-0.13372-0.11527-0.51798-0.11527-0.38426 0 0.8269 2.3369-1.0846 2.5361-1.3833 0.45271-0.67906 0.22658-2.1989 1.268-2.4592 0.93449-0.23362 2.0635 1.1595 2.9588 1.3833 2.0089 0.50223 3.1183-2.0743 5.1875-1.8444 1.1594 0.12881 4.435 2.1422 5.0722 0.23055 0.44363-1.3309-2.2494-0.91334-2.6514-1.1143-0.37739-0.1887-0.47717-0.90731-0.84536-1.1528-1.7186-1.1457-3.1741 0.19594-4.88-0.23055-5.47-1.3675-5.6068-3.6089-10.874 0.1537z" fill="#b7c5d9" stroke-width="1.0778"/><path d="m65.585 23.509c-1.3274-0.19088-3.8406 1.4103-1.7916 2.4348 1.6604 0.83022 3.3443-0.75568 4.9155-1.1485 1.6001-0.40003 3.26 1.2018 4.8695 1.47 0.9189 0.15315 1.6696-0.75997 2.5726-0.87284 0.47662-0.05958 6.7738 0.1482 6.8449 0.18376 1.4529 0.72643 1.7102 2.5163 3.5833 0.64315 2.6141-2.6141-1.1569-4.7359-3.2617-5.7883-3.8585-1.9292-6.5892 2.2423-9.9228 3.3535-2.0346 0.6782-1.4887-1.66-2.7104-2.0672-0.9821-0.32737-3.759 1.4565-5.0992 1.7916z" fill="#b7c5d9" stroke-width="1.2885"/><path d="m95.72 19.971c-9.7115-0.19162-2.6483 4.2808-3.1698 8.4528-0.34044 2.7236-2.4586 5.8785-1.0566 8.6825 0.60413 1.2083 2.0286 1.8869 3.1238 1.0107 1.7945-1.4356 2.1436-9.6808 2.6644-9.785 3.5005-0.70009 3.0236 4.0176 6.3855 3.5373 2.8581-0.4083 1.9073-5.9259 5.283-4.9614 2.7369 0.78198 1.3373 2.1845 1.7457 4.2264 0.20422 1.0211 1.6312 1.2801 2.251 0.50533 1.5333-1.9166-0.91146-2.9235-0.45938-4.7317 0.4531-1.8124 2.8457-2.6746 2.3429-4.6858-0.64328-2.5732-4.8698-0.59752-6.0639-1.7916-0.35175-0.35174-0.28981-0.76036-0.96471-0.87284-1.4216-0.23693-3.0497 0.89755-4.3642 0.45939-1.1728-0.39093-2.5275-1.0932-3.8589-0.8269-1.1439 0.22878-2.2753 0.65124-3.3535 1.0107" fill="#b7c5d9" stroke-width="1.2885"/><path d="m120.99 22.085c-1.1848-0.25455-2.1931-0.29057-2.9401 0.64314-1.6503 2.0629 1.8905 3.3629 2.986 4.8236 0.39666 0.52888-0.29255 1.6885 0.27563 2.0673 0.35609 0.2374 0.93944 0.40932 1.3782 0.32157 2.8131-0.56262 4.3389-4.6789 7.4881-3.6292 3.0019 1.0006 1.8453 6.6872 6.3396 5.7883 1.966-0.39321-1.1024-5.3749 1.6079-5.3749 2.4058 0 5.8833 4.5448 7.3502 3.0779 1.508-1.508-2.7855-5.3665-3.9048-5.9261-1.225-0.61248-1.6026-1.9957-2.8482-2.6185-2.7835-1.3917-5.5711 0.18126-8.315-0.36751-4.2305-0.8461-2.2964-2.5269-7.3502 0" fill="#b7c5d9" stroke-width="1.2885"/><path d="m171.9 22.147c-3.6347-0.07372-5.4538 1.3597-7.991 4.7426-0.16457 0.21946-1.0447 1.3591-0.71465 1.6892 1.5526 1.5526 4.1618-1.6204 6.042 0.25987 0.48419 0.48419 4.5545 4.4759 5.7821 3.2484 0.33056-0.33055-3.9232-8.1 4.4178-6.4318 2.8785 0.5757 10.11 4.6253 12.604 3.3783 1.46-0.72999-0.96168-3.7424-1.4293-4.6777-0.33549-0.67095 0.48734-2.1763 0-2.6637-0.56675-0.56674-1.9494-0.5524-2.6637-0.90955-1.3441-0.67206-1.3674-2.4265-2.8586-2.9235-3.8333-1.2778-6.886 3.8249-10.07 4.2229" fill="#b7c5d9" stroke-width="1.2885"/><path d="m219.57 23.251c-0.6519-2.2323-8.3565 2.2603-4.4178 3.5732 3.2409 1.0803 7.3726-5.3767 14.618-1.7541 1.4489 0.72446 2.7722 1.5304 4.2229 2.014 2.3507 0.78357 4.6291 0.18419 6.8866 1.6892 0.56494 0.37663 3.5632 3.7132 4.093 3.1834 1.2455-1.2455-3.1021-5.116-4.028-6.042-0.82223-0.82223-1.4529-2.231-2.6637-2.5337-1.8598-0.46495-3.6724 0.1101-5.5222-0.25987-1.3813-0.27626-4.595-2.5101-5.977-1.8191-1.5963 0.79817-2.555 1.0746-4.3528 1.2994" fill="#b7c5d9" stroke-width="1.2885"/><path d="m3.5537 20.801c-5.4265 1.0947-1.5898 4.3232-0.88379 7.1472 0.22514 0.90056 0.09292 3.6392 0.96065 4.0731 0.87764 0.43882 1.4974-0.88147 1.7676-1.4217 0.45745-0.9149 0.49952-2.0005 0.49952-2.9972 0-0.13372-0.1152-0.51798-0.1152-0.38426 0 0.8269 2.337-1.0846 2.5361-1.3833 0.4527-0.67906 0.22657-2.1989 1.268-2.4592 0.9345-0.23362 2.0635 1.1595 2.9588 1.3833 2.0089 0.50224 3.1184-2.0743 5.1874-1.8444 1.1594 0.12882 4.435 2.1422 5.0722 0.23055 0.44363-1.3309-2.2494-0.91334-2.6514-1.1143-0.37739-0.1887-0.47717-0.90731-0.84536-1.1528-1.7186-1.1457-3.1741 0.19594-4.88-0.23055-5.47-1.3675-5.6068-3.6089-10.874 0.1537z" fill="#fff" stroke-width="1.0778"/><path d="m65.761 22.322c-1.3274-0.19088-3.8406 1.4103-1.7916 2.4348 1.6604 0.83022 3.3443-0.75568 4.9155-1.1485 1.6001-0.40004 3.26 1.2018 4.8695 1.47 0.9189 0.15315 1.6696-0.75997 2.5726-0.87284 0.47664-0.05958 6.7738 0.1482 6.8449 0.18376 1.4529 0.72643 1.7101 2.5163 3.5832 0.64315 2.6141-2.6141-1.1569-4.7359-3.2617-5.7883-3.8585-1.9292-6.5892 2.2423-9.9228 3.3535-2.0346 0.6782-1.4887-1.66-2.7104-2.0673-0.9821-0.32736-3.759 1.4566-5.0992 1.7916z" fill="#fff" stroke-width="1.2885"/><path d="m95.759 18.831c-9.7115-0.19162-2.6483 4.2807-3.1698 8.4528-0.34045 2.7236-2.4586 5.8785-1.0566 8.6825 0.60413 1.2083 2.0285 1.8869 3.1238 1.0107 1.7945-1.4356 2.1437-9.6808 2.6644-9.785 3.5005-0.7001 3.0236 4.0176 6.3855 3.5373 2.8581-0.4083 1.9072-5.9259 5.283-4.9614 2.7369 0.78198 1.3373 2.1845 1.7457 4.2264 0.20422 1.0211 1.6312 1.2801 2.251 0.50533 1.5333-1.9166-0.91146-2.9235-0.45939-4.7317 0.4531-1.8124 2.8457-2.6746 2.3429-4.6858-0.64327-2.5732-4.8698-0.59752-6.0639-1.7916-0.35173-0.35174-0.2898-0.76036-0.9647-0.87284-1.4216-0.23693-3.0497 0.89755-4.3642 0.45939-1.1728-0.39093-2.5275-1.0932-3.8589-0.8269-1.1439 0.22877-2.2753 0.65124-3.3536 1.0107" fill="#fff" stroke-width="1.2885"/><path d="m121.16 20.898c-1.1848-0.25456-2.1931-0.29057-2.9401 0.64314-1.6503 2.0629 1.8905 3.3629 2.986 4.8236 0.39665 0.52888-0.29255 1.6885 0.27563 2.0673 0.35609 0.2374 0.93945 0.40932 1.3782 0.32157 2.8131-0.56262 4.3389-4.6789 7.488-3.6292 3.0019 1.0006 1.8453 6.6872 6.3396 5.7883 1.966-0.39321-1.1024-5.3749 1.6079-5.3749 2.4058 0 5.8833 4.5448 7.3502 3.0779 1.508-1.5079-2.7855-5.3665-3.9048-5.9261-1.225-0.61248-1.6026-1.9957-2.8482-2.6185-2.7835-1.3917-5.5711 0.18126-8.315-0.36751-4.2305-0.8461-2.2964-2.5269-7.3502 0" fill="#fff" stroke-width="1.2885"/><path d="m172.08 20.961c-3.6347-0.07372-5.4538 1.3597-7.991 4.7426-0.16456 0.21946-1.0447 1.3591-0.71465 1.6892 1.5526 1.5526 4.1617-1.6204 6.042 0.25987 0.48417 0.48419 4.5545 4.4759 5.7821 3.2484 0.33056-0.33055-3.9232-8.1 4.4178-6.4318 2.8785 0.5757 10.11 4.6253 12.604 3.3783 1.46-0.72999-0.96168-3.7424-1.4293-4.6777-0.33548-0.67095 0.48734-2.1763 0-2.6637-0.56673-0.56674-1.9494-0.5524-2.6637-0.90954-1.3441-0.67206-1.3674-2.4265-2.8586-2.9235-3.8333-1.2778-6.886 3.8249-10.07 4.2229" fill="#fff" stroke-width="1.2885"/><path d="m219.74 22.065c-0.65192-2.2323-8.3565 2.2603-4.4178 3.5732 3.241 1.0803 7.3726-5.3767 14.618-1.7541 1.4489 0.72447 2.7722 1.5304 4.2229 2.014 2.3507 0.78357 4.6291 0.18419 6.8866 1.6892 0.56494 0.37663 3.5632 3.7132 4.093 3.1834 1.2455-1.2455-3.1021-5.116-4.028-6.042-0.82225-0.82223-1.4529-2.231-2.6637-2.5337-1.8598-0.46495-3.6724 0.1101-5.5222-0.25987-1.3813-0.27626-4.5951-2.5101-5.977-1.8191-1.5963 0.79816-2.555 1.0746-4.3528 1.2993" fill="#fff" stroke-width="1.2885"/></svg>
